<?xml version="1.0" ?>
<!DOCTYPE svg  PUBLIC '-//W3C//DTD SVG 1.1//EN'  'http://www.w3.org/Graphics/SVG/1.1/DTD/svg11.dtd'>
<!-- Uploaded to: SVG Repo, www.svgrepo.com, Generator: SVG Repo Mixer Tools -->
<svg fill="#000000" width="800px" height="800px" style="fill-rule:evenodd;clip-rule:evenodd;stroke-linejoin:round;stroke-miterlimit:2;" version="1.1" xml:space="preserve" xmlns="http://www.w3.org/2000/svg" xmlns:serif="http://www.serif.com/" xmlns:xlink="http://www.w3.org/1999/xlink">
<g id="Icon">
<path d="M22.561,7.287c0,0.001 0,0.001 -0,0.001c-0.973,1.081 -1.131,2.799 -0.224,3.937c1.068,1.345 1.641,3.028 1.641,4.775c0,4.399 -3.572,7.97 -7.973,7.97c-4.401,-0 -7.973,-3.571 -7.973,-7.97c-0,-1.75 0.575,-3.436 1.615,-4.809c0.88,-1.12 0.781,-2.876 -0.168,-3.93c-0.587,-0.652 -1.428,-1.014 -2.304,-0.992c-0.876,0.021 -1.699,0.425 -2.252,1.105c-0.008,0.009 -0.016,0.019 -0.023,0.029c-1.855,2.461 -2.9,5.471 -2.9,8.597c0,7.727 6.275,14 14.005,14c7.73,0 14.005,-6.273 14.005,-14c-0,-3.131 -1.049,-6.146 -2.94,-8.582c-0.005,-0.007 -0.01,-0.013 -0.015,-0.019c-0.545,-0.67 -1.357,-1.068 -2.221,-1.09c-0.864,-0.021 -1.694,0.336 -2.273,0.978Zm1.486,1.339c0.188,-0.208 0.457,-0.324 0.737,-0.317c0.274,0.007 0.532,0.13 0.708,0.339c1.622,2.093 2.518,4.673 2.518,7.352c-0,6.623 -5.379,12 -12.005,12c-6.626,0 -12.005,-5.377 -12.005,-12c-0,-2.677 0.895,-5.255 2.477,-7.367c0.192,-0.228 0.461,-0.358 0.747,-0.365c0.292,-0.007 0.573,0.114 0.768,0.331c0.001,-0 0.001,-0 0.001,-0c0.327,0.364 0.389,0.97 0.084,1.353c-0.005,0.006 -0.01,0.012 -0.015,0.018c-1.307,1.721 -2.03,3.835 -2.03,6.03c-0,5.502 4.468,9.97 9.973,9.97c5.505,-0 9.973,-4.468 9.973,-9.97c0,-2.202 -0.728,-4.323 -2.076,-6.021c-0.001,-0 -0.001,-0.001 -0.001,-0.001c-0.313,-0.392 -0.189,-0.979 0.146,-1.352Z"/>
<path d="M16.02,2c-1.657,0 -3,1.343 -3,3l-0,8.097c-0,1.657 1.343,3 3,3c1.657,0 3,-1.343 3,-3l-0,-8.097c-0,-1.657 -1.343,-3 -3,-3m-0,12.097c-0.552,0 -1,-0.448 -1,-1c-0,-0 -0,-8.097 -0,-8.097c-0,-0.552 0.448,-1 1,-1c-0,-0 -0,-0 -0,-0c0.552,0 1,0.448 1,1c-0,0 -0,8.097 -0,8.097c-0,0.552 -0.448,1 -1,1Z"/>
</g>
</svg>