<svg version="1.2" xmlns="http://www.w3.org/2000/svg" viewBox="0 0 1640 664" width="1640" height="664">
	<title>New Project</title>
	<style>
		.s0 { fill: #161616 } 
	</style>
	<path id="&lt;Path&gt;" class="s0" d="m72 388.8c4.5-3 8.7-6.3 12.9-9.5 4.5-3.5 9-6.8 13.5-10.3 10.5-8.2 20.6-16.9 30.8-25.5q-4 5.4-8 10.7-3.9 5.2-7.7 10.4-2.1 2.9-4.2 5.7c-1.5 2-2.7 4.1-3.8 6.4-1 2.1-1.8 4.4-2.6 6.7-1.4 3.7 0.2 8.4 2.9 11.1q2.2 2.1 5.1 2.9 3 0.9 6.1 0c2.4-0.4 4.8-0.7 7.2-1.2q2.4-0.6 4.7-1.6 2.5-1 5-2.3c5.5-2.6 10.5-6.2 15.5-9.6 5.6-3.9 11.3-7.6 16.8-11.5 5.8-4.1 11.5-8.4 17.1-12.6 5.2-3.9 10.3-7.9 15.4-11.9q-0.8 1-1.5 1.9-7.2 9.6-14.3 19.1c-2.9 3.6-6 7.2-8.8 10.9-1.5 2-2.7 4.5-3.5 6.8q-1.1 2.5-1.5 5.3-0.4 2.7-1 5.5c-0.6 2.8-0.5 5.5 1.1 8.1 1.2 2.1 3.7 4.5 6.3 4.9 3.8 0.5 7.5 1.4 11.3 1.7q2.8 0.5 5.6 0.1 2.7-0.3 5.4-0.8c3.4-0.7 6.7-2 9.9-3.3 3.4-1.4 6.7-2.9 9.9-4.5 13.6-6.8 26.7-14.4 39.4-22.6 5.9-3.8 11.8-7.6 17.6-11.6q-5.8 7.4-11.6 14.9c-2.4 3-5 6-7.3 9.1-2.2 2.9-4.1 5.7-5.3 9-1.1 2.9-1.6 5.8-2.3 8.8-0.9 4 0 8.1 2.9 11q2.1 2.1 5 2.9 3 0.8 6 0 1.6-0.3 3.2-0.5c3.6-0.5 7.1-0.9 10.5-1.5 3.8-0.7 7.2-2.1 10.7-3.5 7.2-2.9 14-6.6 20.8-10.5 13.4-7.8 26.3-16.1 39-25.1q2.7-1.9 5.5-4-0.2 0.3-0.3 0.5c-1.4 1.9-2.6 4-3.3 6.3-0.9 3.5-0.1 7.2 0.6 10.6 1.3 6 8.2 9.4 13.8 7.8 3.6-1 7.3-1.9 10.9-2.9 4.5-1.3 8.8-3.3 13-5.3 8.3-3.9 16.1-8.9 23.9-13.7 5.9-3.7 11.7-7.6 17.5-11.5 11.3-7.5 22.8-14.8 33.8-22.7q9.3-6.7 18.7-13.3-4.1 4.8-8.1 9.6-1.8 2.1-3.7 4.1c-2.8 3-5.4 6-7.8 9.3-2.5 3.4-3.1 7.7-3.3 11.8q0.3 2.8 0.9 5.5 0.3 1.1 0.7 2.3 0.9 2.3 1.6 4.8 0.8 3 3 5.2c2 2 5.5 3.8 8.4 3.5 7-0.9 14-1.5 21-2.5 6.7-1.1 13.3-3.7 19.5-6.5 12.7-5.5 25-12.2 37-19.2 8.7-5 17.2-10.3 25.7-15.6q-3 3.3-6 6.6-5.9 6.5-11.8 13c-2.7 3-5.5 6-8.2 9.1-4.4 4.8-7.8 10.2-11.3 15.7-3.3 5.1-1.4 13.2 4.2 15.9q2.3 1.2 4.7 2.4 2.5 1.3 5.2 1.7c3.8 0.9 7.6 0.1 11.3-0.6 3.5-0.7 7-2.6 10.3-4.1 4.2-1.9 8.2-4.4 12.2-6.7 3.4-1.8 6.8-3.5 10.2-5.3 3.4-1.9 6.8-3.9 10.1-5.9 6-3.5 12-7.1 17.7-11q2.6-1.8 5.1-3.5c-0.8 1.5-1.6 3.1-2.5 4.7-2 3.6-2.1 8.1 0 11.7 2.2 3.7 5.9 5.5 10.1 5.8 2.7 0.1 5.4 0.4 8.1 0.4q2.9-0.3 5.7-0.7 2.6-0.6 5.1-1.5c3.5-1.1 6.9-2.7 10.2-4.3 3.3-1.5 6.5-3.4 9.7-5.3 6.4-3.8 12.9-7.8 19.3-11.6 7-4.1 13.7-8.4 20.4-12.9 13.9-9.1 27.5-18.5 41.2-28q3.3-2.4 6.7-4.8-0.7 0.9-1.4 1.7-7.7 9.6-15.3 19.2-3.9 4.8-7.7 9.6c-3.2 4-6.6 7.7-9.6 11.8-1.5 2.1-2.8 4.2-4 6.4-1.7 3.2-2.8 6.7-4.1 10-1.1 2.6-0.3 6.3 1.1 8.6 1.9 3.3 5.6 5.5 9.5 5.4q2.5 0 5.1 0.1 2.5 0 5 0c4.4-0.1 8.7-1.2 12.9-2.5 3.4-1.1 6.7-2.6 10-4 4.1-1.8 8.1-3.9 12-6.1 15.1-8.2 30-16.7 44.5-25.9 14.2-9 28-18.5 41.9-27.9 6.9-4.6 13.6-9.4 20.3-14.2q-0.3 0.4-0.6 0.8-5.9 7.3-11.7 14.7c-2.5 3.1-5 6.1-7.6 9.1q-1.4 1.8-2.7 3.7-0.9 2-1.6 4.2-0.6 2.2-0.2 4.5c0.1 2.4 0.9 4.4 1.7 6.7 1.7 5.1 6.7 8.4 12.2 6.9 6.6-1.8 13.4-3.3 20-5.4 6.5-2 12.7-5 18.9-7.9 7.8-3.6 15.4-7.6 23.1-11.7 9.5-5 19.1-9.9 28.5-15.1q13.2-7.4 26.5-14.7-3.9 3.6-7.8 7.3c-7.5 7.1-15 14-22.4 21.2-8.2 7.9-16.6 15.7-24.7 23.8q-7.3 7.4-14.7 14.8c-3.2 3.2-6.9 5.9-9.9 9.3q-1.4 1.7-2.7 3.5-1 2-1.8 4-0.4 2.2-0.7 4.5c0.1 2.2 0.4 4.3 0.6 6.5 0.2 2.6 0.9 4.8 2.8 6.7 2.4 2.5 5.9 3.3 9.2 2.5 5.7-1.4 11.4-2.5 17-3.9 5.7-1.3 11.2-3.1 16.6-5.3 11.8-4.7 23-10.6 34.2-16.6 5-2.7 10.1-5.3 15-8.2q5.8-3.5 11.7-6.9 6.5-3.8 13.1-7.7-2 1.8-4.1 3.6c-1.7 1.3-3.4 2.6-5 4q-1.4 1.8-2.8 3.6-0.9 2-1.7 4.1-0.8 3 0 6 0.1 2.4 1.4 4.5c1.9 3.8 4.8 6.9 9 8.2 5.5 1.8 11.2 1.1 16.7-0.5 3-0.9 6-2.3 8.9-3.5 2.9-1.3 5.8-2.6 8.6-3.9 8.6-3.4 17-7 25.3-11.1 8.9-4.3 17.5-9 26.3-13.6 5.5-2.9 10.9-6.3 16.4-9.4 12.1-6.9 24.3-13.7 36.1-21.1q12.2-7.5 24.4-15.1-4.3 4.9-8.5 9.7-4.5 5-9 9.9c-3.2 3.6-6.2 7.3-9.1 11.1-2.8 3.7-4.8 8-7.1 12-3.5 6.2-0.4 14.6 6.7 16.4 2.5 0.7 5 1.4 7.6 2q2.8 0.5 5.5 0.5 2.8-0.3 5.5-0.8c3.5-0.5 6.9-2 10.1-3.4 3.4-1.4 6.6-3 9.8-4.6 5.9-3.2 11.8-6.2 17.7-9.3 7.2-3.8 14.2-7.9 21.2-12.1 6.1-3.6 12.2-7.3 18.3-11.1q-0.9 0.8-1.7 1.7c-3.3 3.2-6.2 6.7-9.1 10.2-3.1 3.8-5.7 7.9-5.7 13 0 2.7 1.1 4.9 2.3 7.3 0.9 1.8 3.7 4.6 5.6 5.5q0.7 0.4 1.5 0.8 2.7 1.6 5.9 1.6c2.2 0.2 4.6 0.1 6.9-0.4 4.6-1.2 8.9-3.3 13.1-5.4 2.5-1.2 4.9-2.2 7.3-3.4 2.7-1.3 5.3-2.8 7.8-4.2 5.2-3 10.2-6.2 15.2-9.3 1.9-1.2 3.7-2.4 5.5-3.6q-2 2.2-4 4.4-3.1 3.6-6.2 7.1c-3 3.4-6.1 6.8-9.1 10.4-2.8 3.5-5.5 7.1-8.2 10.8-1.6 2.1-1.7 5.7-1 8.2 0.6 2.5 2.5 5.3 4.9 6.5q2.1 0.9 4.1 2 2.3 1 4.6 1.9 2.4 0.6 4.9 0.8c2.8-0.1 5.4-0.5 8.1-0.8 4.5-0.7 9-2.7 13.1-4.5 4.4-1.9 8.6-3.9 12.9-5.9 3.6-1.7 7.2-3.1 10.7-4.8 4.5-2 8.9-4.2 13.3-6.5 7.1-3.6 14.2-7.2 21.1-11.2q7.8-4.5 15.6-9-0.6 0.9-1.3 1.8c-2.9 4.3-1.8 11.1 1.9 14.6 3.3 3.1 6.4 6.4 11 7.6 2.3 0.7 5.1 0.7 7.5 0.6 3.5-0.2 6.9-1.2 10.1-2.3 2.4-0.8 4.7-1.9 6.9-2.8 2.6-1.1 5.2-2.1 7.7-3.2 6-2.6 11.8-5.7 17.5-8.9 8.6-4.9 17.1-10.2 25.3-15.8-0.4 1.8-0.7 3.5-0.7 5.4-0.1 2 0.5 4.5 1.2 6.3q0.6 1.5 1.2 2.9 1.3 1.8 2.7 3.5c1.7 2.1 4.6 2.8 7 3.7q1.6 0.3 3.3 0.5 2.1 0.3 4.3-0.2c2.7-0.3 5.3-0.9 7.9-1.6 10-2.6 19.2-7.4 28.3-12.2 10.4-5.5 20.5-11.7 30.5-17.8 7.2-4.4 14.1-9 21.2-13.5q0.8-0.5 1.6-1-0.4 0.7-0.8 1.4c-3.8 6.2-1.4 14.5 4.7 18.1 3.1 1.8 6.8 2.3 10.2 1.3 3-0.8 6.6-3.1 7.9-6q3.9-8.7 7.1-17.6 1.4-4 2.8-8 0.9-2.4 1.7-4.8c1.5-3.9 1.9-7.7 1.7-11.9-0.1-3.1-1.1-5.8-3.3-8-2.9-2.9-7.1-4-11-2.9-3.7 0.9-7 2.1-10.4 3.8-3 1.5-5.8 3.6-8.6 5.4-2.7 1.7-5.5 3.4-8.3 5.1q-6.7 4.1-13.4 8.2c-6 3.6-11.9 7.3-17.9 10.9-6.8 4-13.5 8.1-20.4 12-3.4 1.8-6.9 3.6-10.3 5.4q-2.7 1.4-5.5 2.8 7.5-9.3 15.3-18.4c7.6-8.9 15.5-17.5 23-26.5q2.1-2.1 2.9-5c0.8-2.9 0.4-6.1-1.1-8.7-1.5-2.6-4-4.5-6.8-5.2-2.7-0.8-6.4-0.6-8.7 1.1-12.5 8.9-24.8 17.9-37.2 26.7-7.5 5.3-14.9 10.6-22.4 15.7-9.1 6.2-18.3 12.4-27.7 18.1-6.1 3.6-12.1 7.1-18.4 10.3q3.3-3.2 6.6-6.3c4.7-4.7 9.7-9.1 14.5-13.6 11.3-10.4 22.6-21 34.2-31q1-0.8 1.9-1.6c4.6-4 4.1-11.6 0-15.7-2-2.1-4.9-3.3-7.8-3.3-3.1 0-5.5 1.3-7.8 3.3q-1.1 0.9-2.1 1.7c-6 4.4-12.4 8.3-18.7 12.3-5.1 3.2-10.2 6.4-15.2 9.6-10.7 6.7-21.4 13.2-32.1 19.8-3.2 1.9-6.4 3.7-9.6 5.5q-11.4 6.7-22.9 13.3-9.3 5.4-18.7 10.5c-7.8 4.2-15.7 8.3-23.8 12.1-3.5 1.7-7 3.2-10.6 4.8-2.6 1.2-5.1 2.4-7.7 3.7 3.1-3.7 6.3-7.3 9.4-10.9 3.6-4.2 7.3-8.4 11-12.6q8.1-8.8 16.1-17.7c4.1-4.5 8.3-8.9 12.5-13.4q4.8-5.2 9.2-10.7c2.6-3.4 5-6.9 7.5-10.3 2.1-2.9 1.7-7.5 0-10.4q-1.4-2.4-3.7-3.7c-2.2-1.3-5.5-2-7.9-1.1q-2.6 1-5.1 2.1c-2.4 1-4.4 2.2-6.6 3.7-2.4 1.6-4.6 3.3-7 4.9q-6 4.1-12 8.3c-6.3 4.2-12.6 8.5-18.9 12.7-7.3 5-14.9 9.7-22.4 14.5-3.9 2.6-7.9 5.1-12 7.5q-0.7 0.5-1.4 0.9 6.9-7.3 13.8-14.6 6.8-7.1 13.6-14.3 5-5.3 10.1-10.7c3.9-4.2 7.6-8.5 11.3-12.8q2-2.1 2.8-4.9c0.8-2.9 0.4-5.9-1.1-8.5-2.4-4-7.8-6.7-12.5-5.1-1.8 0.7-4 1.4-5.7 2.4-3 1.7-5.8 3.6-8.6 5.6-2 1.4-4 2.7-6 4-4.2 2.7-8.3 5.4-12.5 8-7.8 5-15.6 10.1-23.5 15q-14.8 9.2-29.6 18.4c-7.8 4.7-15.6 9.3-23.5 13.8-6.1 3.4-12.3 6.6-18.6 9.8-2.5 1.3-5.1 2.7-7.6 4q2.4-2.7 4.8-5.5 4.1-4.6 8.1-9.2 5.6-6.4 11.1-12.8 8.4-9.7 16.7-19.3c2.5-3 5.1-5.9 7.7-8.7 2.9-3.1 5.6-6.4 8.2-9.7 2.3-3 3.8-6.5 4.6-10.2 0.9-3.8 0.1-7.6-2.7-10.4-3.4-3.4-8.9-4.2-13-1.7-25.6 16-51.2 32-77 47.6-4.6 2.8-9 5.6-13.6 8.2q-10.5 6-21 11.9c-19.9 11.3-39.8 22.7-60.8 31.8 3.3-2.9 6.7-5.7 10.1-8.6 9.5-8.3 19.2-16.4 28.8-24.6q17.3-14.5 34.6-29.1c5.6-4.7 11.2-9.5 16.8-14.2q5.4-4.7 11-9.2 0.1-0.1 0.2-0.2c3.9-2.7 7.6-5.8 11.1-9 3.4-3.1 3.8-8.6 1.6-12.4-1.3-2.3-3.6-4-6.1-4.7-0.9-0.3-1.9-0.4-2.9-0.4-1.8 0-3.7 0.4-5 1.4-4.6 3.4-9.3 6.7-13.7 10.4q-2.8 2.3-5.5 4.6c-5.5 3.7-11.2 7.4-16.7 11.1-6.7 4.5-13.4 8.8-20.1 13.2-14.7 9.6-29.6 18.9-44.5 28.3-4.8 3-9.5 6.1-14.4 9q-12.5 7.4-25 14.8-13.4 7.8-26.7 15.7c-4.2 2.5-8.6 4.8-12.9 7.2-10.7 5.9-21.5 11.6-32.7 16.4-4.4 1.8-8.8 3.3-13.3 4.6q0.3-0.3 0.7-0.7 2.8-2.8 5.5-5.7c4-4.1 8-8.4 12.1-12.4 8.5-8.3 17-16.5 25.5-24.8 7.8-7.6 15.9-15.1 23.9-22.6q5.1-4.8 10.1-9.7c5.3-5.1 10.8-10 16-15.2 2.5-2.5 4.8-5.1 6.9-7.9 2.3-2.9 4.2-6 6.3-9 4.1-6.2-2.7-15.2-9.8-12.8-5.4 1.9-10.5 3.8-15.5 6.4-3.7 1.9-7.2 4-10.9 6q-8.4 4.5-16.8 8.9-12.4 6.6-24.7 13.2c-7.3 3.9-14.8 7.7-22.2 11.5-13.9 7.1-27.8 14.4-42.1 20.7-3.1 1.3-6.3 2.5-9.5 3.5q1.3-1.6 2.6-3.3c3.9-5 7.9-9.9 11.8-14.9q6-7.4 11.9-14.9 3.8-4.7 7.6-9.5 3.2-4 6.3-8.2c2.8-3.7 4.9-7.8 7-12 1.5-3.2 1.8-6.6 0-9.8-2.1-3.5-7-6-11-4.5-3.1 1.2-6.1 2.4-8.9 4.1-2.2 1.4-4.3 3.2-6.4 4.7q-4 2.8-7.9 5.5-7.1 5-14.3 10c-10.1 7-20.3 13.9-30.5 20.9-10.1 6.9-20.6 13.4-30.9 20.1-9.8 6.4-19.7 12.4-29.8 18.3-6.6 3.9-13.4 7.5-20.1 11.2-6.9 3.8-13.7 7.6-20.9 10.9q-0.6 0.3-1.1 0.5 2.2-2.7 4.3-5.4 5.2-6.6 10.4-13.2c5.3-6.7 10.7-13.3 16.1-19.9q6.7-8.4 13.4-16.8 5.2-6.6 10.4-13.1c5-6.3 9.6-13 14.2-19.6 1.6-2.3 1.8-5.7 1.1-8.3-0.7-2.4-2.5-5.2-4.9-6.3-1.6-0.8-3.2-1.5-5-1.9-3.4-0.8-6.8-0.1-9.8 1.5-4.1 2.2-7.3 5.4-10.8 8.4-14.5 10.4-29.1 20.7-44 30.7q-13.5 9.1-27 18.2c-11.6 7.9-23.5 15.5-35.6 22.7-4.3 2.6-8.6 5-13 7.6q3.7-3.9 7.3-7.7 8.4-8.7 16.8-17.4 5.3-5.6 10.6-11.1 4.7-5 8.9-10.4c2.5-3.1 4.6-6.4 6.7-9.8 2.7-4.4 1.7-10.3-1.8-13.8q-2.1-2.2-5-3c-2.7-0.7-6.5-0.5-8.8 1.2-7.3 5.3-14.4 10.8-21.5 16.3-6.4 4.9-12.7 9.8-19.2 14.5q-7.9 5.9-15.9 11.7c-2.5 1.9-4.9 3.7-7.5 5.5q-14.4 9.8-28.8 19.6c-6.7 4.5-13.5 8.6-20.4 12.8q-7.5 4.5-15.2 8.5 4.7-5.3 9.5-10.7c6.4-7.1 12.9-14.1 19.3-21.2 5.6-6.1 11.3-12 17-18q4.8-5.2 9.6-10.3c6.7-7 14.7-12.8 19.8-21.3 2.6-4.2 1.7-9.9-1.7-13.4-3.4-3.4-9.3-4.4-13.5-1.7-16.5 10.7-33.2 21-49.9 31.3q-12.6 7.8-25.3 15.6-14.1 8.7-28.5 17c-5.2 3-10.5 5.7-15.9 8.5-5.6 2.8-11.1 5.6-16.8 8.1q-3.6 1.4-7.3 2.7c-3.2 1-6.4 1.7-9.7 2.2q-0.5 0.1-1 0.1c1.6-1.8 3.2-3.6 4.8-5.4q3.8-4.6 7.6-9.2c3.5-4.2 6.9-8.5 10.5-12.6q7.4-8.8 14.8-17.4c4.5-5.4 9.1-10.6 13.6-16 3.1-3.6 6.1-7.4 8.9-11.2 2.7-3.6 5.1-7.4 7.6-11.1 2.8-4 1.6-10-1.7-13.3-3.5-3.5-9.2-4.3-13.4-1.7-3.1 1.8-6.1 3.6-9.1 5.5-3.8 2.5-7.5 5.3-11.1 8q-4.5 3.4-9.1 6.7-10.4 7.5-20.8 14.9c-11 7.9-22.1 15.7-33.1 23.5-9.8 6.9-19.8 13.5-29.8 20.1q-9.6 6.4-19.2 12.7c-3.5 2.3-7.1 4.5-10.6 6.6q-4 2.5-7.9 4.8c17-21.1 34.5-41.9 52.1-62.5 1.8-2.2 3-4.4 3-7.3 0-2.7-1.1-5.4-3-7.3-4.1-4.1-10.4-3.8-14.6 0-3.4 3.1-6.7 6.4-10.3 9.3q-3 2.5-6 4.9c-3.5 2.9-6.9 5.7-10.3 8.5q-11.6 9.3-23.2 18.5-14.7 11.1-29.4 22.2c-7.8 5.9-16 11.3-24.2 16.7-6.4 4.2-13.1 8.1-19.7 12.1-6.8 3.9-13.5 7.8-20.6 11.1 3.9-5.1 7.8-10.2 11.6-15.2 8.1-10.1 16.1-20.3 24.6-30.1q9.4-11 18.9-22c3.2-3.8 6.5-7.4 9.8-11q3.2-3.6 6.4-7 1.2-0.9 2.4-1.8c2.2-1.7 4.3-3.4 6.5-5.2 2.2-1.9 3.9-4.1 5.8-6.3q1.9-2 2.6-4.6c0.8-2.7 0.4-5.7-1-8.1-1.4-2.3-3.6-4-6.2-4.7-2.4-0.7-6-0.6-8 1-2 1.5-4 3-6 4.5-2.7 2.2-5.2 4.5-7.8 6.9q-2.9 2.9-5.7 5.9-5.3 4.1-10.6 8.2-10.9 8.1-21.8 16.1c-5.9 4.4-12 8.4-18 12.6-7.6 5.3-15.2 10.8-23 15.9-9.7 6.4-19.4 12.8-29.4 18.7-4.9 3-10 5.6-15.1 8.3-5.1 2.7-10.3 5.5-15.6 8-2.9 1.1-5.8 2-8.8 2.7q0.7-1.1 1.5-2.2c4.1-5.2 8.1-10.5 12.1-15.8 3.2-4.3 6.3-8.7 9.5-13q9.6-12.4 19.2-24.9 6.7-8.7 13.5-17.3 3.6-4.6 7.2-9.2c3.8-4.8 7-9.9 10.4-14.9 2.5-3.8 1.5-9.2-1.6-12.2-3-3.1-8.5-4.2-12.2-1.6-3.4 2.3-6.8 4.5-10 7q-2.9 2.3-5.7 4.6-5 3.9-9.9 7.8-11 8.6-22.1 17.3-13.2 10.1-26.4 20.2c-7.4 5.7-14.9 11.1-22.5 16.4q-4 2.8-8.1 5.5 3.4-4.6 6.8-9.3 6.6-9.1 13.2-18.3 4-5.5 7.9-11c2.9-3.9 5.6-7.9 8.2-12 2.9-4.8 4.8-10.2 6.9-15.4q0.8-2.9 0-5.8-0.8-2.8-2.8-4.8c-3.6-3.6-9-4.1-13.3-1.7-3.3 1.8-6.5 3.6-9.6 5.9-3.7 2.7-7.1 5.9-10.6 8.9-2.7 2.5-5.6 4.8-8.4 7.1q-6.9 5.8-13.8 11.6c-16 13.5-32 27.1-48.5 40.1-5.2 4-10.5 8-15.8 11.9q-3.8 2.9-7.7 5.5 3.2-5.5 6.4-10.9c4.3-7.3 8.8-14.5 13.1-21.7 4.1-6.8 8.1-13.6 12.1-20.3 2.2-3.8 4.4-7.6 6.7-11.3 2.7-4.1 5.4-8.1 7.3-12.7 0.8-2.2 1.9-4.6 1.8-7-0.1-2-0.3-3.9-0.7-5.8-0.5-3.3-3.8-6.1-6.9-6.9-3.3-0.9-7.4-0.1-9.7 2.5-9.2 10.4-18.1 21-27.1 31.5q-1.5-0.5-3.1-0.5c-2.3 0-5.3 1-6.8 2.8-5.3 6.6-10.5 13.1-15.7 19.7-6.1 8.1-12.2 16.2-18.3 24.3-2.1 2.7-1.6 7.1 0 9.8 1.6 2.7 5 5.1 8.3 4.8q2.3-0.2 4.4-0.5c1.9-0.5 3.4-1.1 5-2-1.9 2.9-4 5.7-5.7 8.8-1.3 2.4-2 4.9-2.5 7.6-0.5 2.9-0.5 5.8-0.6 8.7-0.3 7.4 7.4 13 14.3 11 5.6-1.7 11.1-2.9 16.4-5.2 5-2.1 9.5-4.8 14-7.8z"/>
</svg>